<?xml version="1.0" encoding="utf-8"?>
<!-- Generator: Adobe Illustrator 24.1.1, SVG Export Plug-In . SVG Version: 6.00 Build 0)  -->
<svg version="1.1" id="Layer_1" xmlns="http://www.w3.org/2000/svg" xmlns:xlink="http://www.w3.org/1999/xlink" x="0px" y="0px"
	 viewBox="0 0 138 34" style="enable-background:new 0 0 138 34;" xml:space="preserve">
<style type="text/css">
	.st0{fill:#F2F2F2;}
</style>
<g>
	<g>
		<path class="st0" d="M57.62,11.99h1.61v8.52h-1.61V11.99z M58.2,11.99h5.01v1.55H58.2V11.99z M58.2,15.58h4.36v1.55H58.2V15.58z"
			/>
		<path class="st0" d="M65.87,20.51h-1.66v-8.52h1.66V20.51z"/>
		<path class="st0" d="M66.75,11.99h1.65l1.81,5.68l1.81-5.68h1.65l-2.84,8.52h-1.25L66.75,11.99z"/>
		<path class="st0" d="M74.67,11.99h1.61v8.52h-1.61V11.99z M75.25,11.99h5.13v1.55h-5.13V11.99z M75.25,15.5h4.48v1.55h-4.48V15.5z
			 M75.25,18.96h5.13v1.55h-5.13V18.96z"/>
	</g>
</g>
</svg>
