<?xml version="1.0" encoding="utf-8"?>
<!-- Generator: Adobe Illustrator 24.1.1, SVG Export Plug-In . SVG Version: 6.00 Build 0)  -->
<svg xmlns="http://www.w3.org/2000/svg"> 
<style type="text/css">
	.st0{fill:#E6E6E6;}
</style>
<symbol id="mastodon-svg-logo-full" viewBox="0 0 713.35878 175.8678">
<g>
	<path class="st0" d="M298.05,60.1h9.63v51.12h-9.63V60.1z M301.57,60.1h30.06v9.28h-30.06V60.1z M301.57,81.65h26.19v9.28h-26.19
		V81.65z"/>
	<path class="st0" d="M348.29,111.21h-9.98V60.1h9.98V111.21z"/>
	<path class="st0" d="M354.97,60.1h9.91l10.86,34.1l10.86-34.1h9.91l-17.02,51.12h-7.52L354.97,60.1z"/>
	<path class="st0" d="M402.86,60.1h9.63v51.12h-9.63V60.1z M406.34,60.1h30.76v9.28h-30.76V60.1z M406.34,81.19h26.89v9.28h-26.89
		V81.19z M406.34,101.93h30.76v9.28h-30.76V101.93z"/>
</g>
<g>
</g>
<g>
</g>
<g>
</g>
<g>
</g>
<g>
</g>
</symbol>
</svg>
