<svg xmlns="http://www.w3.org/2000/svg" ><symbol id="mastodon-svg-logo-full" viewBox="0 0 400.56 154.8"><path d="M11.6,0H370.06a30.51,30.51,0,0,1,30.51,30.51v93.79a30.51,30.51,0,0,1-30.51,30.51H11.6A11.6,11.6,0,0,1,0,143.2V11.6A11.6,11.6,0,0,1,11.6,0Z" style="opacity:0.29"/><path d="M206,115.27a31.75,31.75,0,0,1-7.07-2.36,27.75,27.75,0,0,1-6-3.87l5-7.46a23.16,23.16,0,0,0,7.37,4.2,26,26,0,0,0,8.65,1.43q5.7,0,8.85-2a6.48,6.48,0,0,0,3.14-5.75v0a6,6,0,0,0-1.4-4.16A8.33,8.33,0,0,0,220.81,93,46.62,46.62,0,0,0,215,91.62a.85.85,0,0,0-.23,0,.67.67,0,0,1-.24,0l-.7-.11a57,57,0,0,1-9.37-2.23,13.51,13.51,0,0,1-6.25-4.61q-2.58-3.32-2.58-9.41v0A16.83,16.83,0,0,1,198,65.92a15.18,15.18,0,0,1,7-5.82,30.36,30.36,0,0,1,17.21-1.31,32.32,32.32,0,0,1,6,2A33.53,33.53,0,0,1,234,64l-4.53,7.7a27.6,27.6,0,0,0-6.68-3.56A19.92,19.92,0,0,0,216.17,67q-5.4,0-8.34,2a6.3,6.3,0,0,0-3,5.56v0a5.82,5.82,0,0,0,1.52,4.26,9,9,0,0,0,3.81,2.28,62.08,62.08,0,0,0,6.38,1.55l.3.06.29,0,.43.08.43.08a46.48,46.48,0,0,1,8.81,2.54,13.9,13.9,0,0,1,5.92,4.76c1.58,2.19,2.38,5.17,2.38,9v.08a16.13,16.13,0,0,1-2.5,9.1,15.48,15.48,0,0,1-7.27,5.76,29.85,29.85,0,0,1-11.48,2A37.38,37.38,0,0,1,206,115.27Z" transform="translate(-168.14 -11.21)" style="fill:#f2f2f2"/><path d="M246.65,113.48a18,18,0,0,1-7.15-7.35,23,23,0,0,1-2.54-11V79a23,23,0,0,1,2.54-11,18,18,0,0,1,7.15-7.35,23.25,23.25,0,0,1,21.33,0,18.08,18.08,0,0,1,7.15,7.35,23,23,0,0,1,2.54,11v16.1a23,23,0,0,1-2.54,11,18,18,0,0,1-7.15,7.35,23.25,23.25,0,0,1-21.33,0ZM263,105.41a9.59,9.59,0,0,0,3.77-4,13.09,13.09,0,0,0,1.33-6V78.77a13.09,13.09,0,0,0-1.33-6,9.59,9.59,0,0,0-3.77-4,12,12,0,0,0-11.29,0,9.46,9.46,0,0,0-3.77,4,13,13,0,0,0-1.33,6V95.41a13,13,0,0,0,1.33,6,9.46,9.46,0,0,0,3.77,4,12,12,0,0,0,11.29,0Zm-6.54-5.66,4.92-6.25,21.56,16.64L278,116.43Z" transform="translate(-168.14 -11.21)" style="fill:#f2f2f2"/><path d="M293.27,113.59a16.36,16.36,0,0,1-7-7.22,25.25,25.25,0,0,1-2.38-11.43V58.69h9.34V95.21c0,3.7,1,6.57,2.87,8.6s4.61,3,8.1,3,6.24-1,8.17-3,2.89-4.9,2.89-8.6V58.69h9.33V94.94a25.12,25.12,0,0,1-2.4,11.43,16.44,16.44,0,0,1-7,7.22,25.61,25.61,0,0,1-22,0Z" transform="translate(-168.14 -11.21)" style="fill:#f2f2f2"/><path d="M344.65,58.69h6.8l21.32,56.8h-10L348.05,73.18l-14.69,42.31h-10ZM333.36,95.76h29.88v8.95H333.36Z" transform="translate(-168.14 -11.21)" style="fill:#f2f2f2"/><path d="M374.59,58.65h9.33v56.84h-9.33Zm3.86,24.46H398a6.15,6.15,0,0,0,5.79-3.68,10.18,10.18,0,0,0,.86-4.1,9.47,9.47,0,0,0-.83-4.06,6.27,6.27,0,0,0-2.32-2.72,6.44,6.44,0,0,0-3.5-1H378.45V58.65H398.3a16.79,16.79,0,0,1,8.44,2.07,14.35,14.35,0,0,1,5.64,5.86,18.43,18.43,0,0,1,2,8.75,18.45,18.45,0,0,1-2,8.79A14.27,14.27,0,0,1,406.72,90a16.82,16.82,0,0,1-8.42,2.07H378.45Zm13.72,7.18,9.68-1.79,14.92,27H405.56Z" transform="translate(-168.14 -11.21)" style="fill:#f2f2f2"/><path d="M420.74,58.69h9.33v56.8h-9.33Zm3.86,0H458v9H424.6Zm0,24.14h29.1v8.91H424.6Zm0,23.71H458v8.95H424.6Z" transform="translate(-168.14 -11.21)" style="fill:#f2f2f2"/><path d="M462.55,58.65h9.33v56.84h-9.33Zm3.87,24.46H486a6.15,6.15,0,0,0,5.78-3.68,10.18,10.18,0,0,0,.86-4.1,9.62,9.62,0,0,0-.82-4.06,6.35,6.35,0,0,0-2.33-2.72,6.43,6.43,0,0,0-3.49-1H466.42V58.65h19.84a16.79,16.79,0,0,1,8.44,2.07,14.35,14.35,0,0,1,5.64,5.86,18.43,18.43,0,0,1,2,8.75,18.45,18.45,0,0,1-2,8.79A14.27,14.27,0,0,1,494.68,90a16.79,16.79,0,0,1-8.42,2.07H466.42Zm13.71,7.18,9.68-1.79,14.93,27H493.52Z" transform="translate(-168.14 -11.21)" style="fill:#f2f2f2"/><path d="M509.06,116.78V102.1h4v14.68Zm0,1.76v-4.21h25.56v4.21Zm11.09-1.76V104h4v12.75Z" transform="translate(-168.14 -11.21)" style="fill:#c1272d"/><path d="M534.62,96.64v4.29H509.06V96.64Z" transform="translate(-168.14 -11.21)" style="fill:#c1272d"/><path d="M509.06,95.48V91.05l18.54-5.79-18.54-5.78V75.05l25.56,8.42v3.59Z" transform="translate(-168.14 -11.21)" style="fill:#c1272d"/><path d="M509.06,72.5v-15h4v15Zm0,1.74V70h25.56v4.21Zm10.86-1.74V59.4h4V72.5Zm10.67,0v-15h4v15Z" transform="translate(-168.14 -11.21)" style="fill:#c1272d"/></symbol></svg>