<svg xmlns="http://www.w3.org/2000/svg" ><symbol id="mastodon-svg-logo-full" viewBox="0 0 931.93 145.8"><path d="M199.86,577.28a85,85,0,0,1-18.26-6,70.37,70.37,0,0,1-15.29-9.52l12.41-22.07a60.29,60.29,0,0,0,18.94,10.4,68,68,0,0,0,22.07,3.66q13.1,0,20.31-4.45t7.23-12.54v-.1q0-5.67-3.22-9a19.18,19.18,0,0,0-8.4-4.88A102.78,102.78,0,0,0,222.37,520a1.94,1.94,0,0,0-.54-.1,1.64,1.64,0,0,1-.54-.1l-2.14-.29a132.75,132.75,0,0,1-23.64-5.61A34.81,34.81,0,0,1,179.6,502q-6.56-8.44-6.55-24V478q0-13.77,6.15-23.54a38.87,38.87,0,0,1,17.88-14.89q11.71-5.13,28.32-5.13A72.19,72.19,0,0,1,241,436.17a84.64,84.64,0,0,1,15.58,5.08,86.3,86.3,0,0,1,14.45,8l-11.33,22.65a72.28,72.28,0,0,0-17.14-8.79A51.9,51.9,0,0,0,225.4,460q-12.32,0-19.05,4.05t-6.74,11.38v.1q0,6.15,3.52,9.71a21,21,0,0,0,8.69,5.23A135.77,135.77,0,0,0,226.37,494a5.36,5.36,0,0,0,.78.15,5.76,5.76,0,0,1,.79.15,9.64,9.64,0,0,1,1.12.24,9.64,9.64,0,0,0,1.12.24,119.21,119.21,0,0,1,22.51,6.4,35.09,35.09,0,0,1,15.09,12.11q6,8.36,6.05,22.8v.2q0,13.58-6.34,23.24T249,574.26q-12.16,5.07-29.25,5.07A95.77,95.77,0,0,1,199.86,577.28Z" transform="translate(-166.31 -434.41)" style="fill:#fff"/><path d="M316.07,572.84a45.1,45.1,0,0,1-18.21-18.36q-6.45-11.87-6.45-27.49V486.76q0-15.63,6.45-27.49a45.1,45.1,0,0,1,18.21-18.36q11.76-6.5,27.2-6.5t27.19,6.5a45.18,45.18,0,0,1,18.22,18.36q6.44,11.87,6.44,27.49V527q0,15.63-6.44,27.49a45.18,45.18,0,0,1-18.22,18.36q-11.76,6.49-27.19,6.49T316.07,572.84ZM356,549.5a21,21,0,0,0,8.45-8.74,27.65,27.65,0,0,0,3-13.09v-41.6a27.64,27.64,0,0,0-3-13.08,21,21,0,0,0-8.45-8.74,27.7,27.7,0,0,0-25.39,0,21,21,0,0,0-8.45,8.74,27.75,27.75,0,0,0-3,13.08v41.6a27.77,27.77,0,0,0,3,13.09,21,21,0,0,0,8.45,8.74,27.7,27.7,0,0,0,25.39,0Zm-16.89-11,14.26-18.06,54.88,41.6L394,580.21Z" transform="translate(-166.31 -434.41)" style="fill:#fff"/><path d="M447.56,573.13a41.18,41.18,0,0,1-17.67-18.06q-6.06-11.87-6.06-28.57V435.88h26.76v91.31q0,12.21,6.54,18.94t18.46,6.74q12,0,18.6-6.74t6.6-18.94V435.88h26.75V526.5q0,16.69-6.1,28.57a41.4,41.4,0,0,1-17.77,18.06q-11.67,6.21-28.08,6.2T447.56,573.13Z" transform="translate(-166.31 -434.41)" style="fill:#fff"/><path d="M591.61,435.88h17l54.3,142H634.09l-34-97-34,97H537.31Zm-28.23,93.45h74.71v25.79H563.38Z" transform="translate(-166.31 -434.41)" style="fill:#fff"/><path d="M680.47,435.78h26.76V577.87H680.47ZM691.12,495h49.41a12.86,12.86,0,0,0,7.23-2,13.35,13.35,0,0,0,4.83-5.86,22.45,22.45,0,0,0,1.81-8.79,21.27,21.27,0,0,0-1.71-8.79,13.35,13.35,0,0,0-4.83-5.86,13.05,13.05,0,0,0-7.33-2.05H691.12V435.78h51.56a39.7,39.7,0,0,1,20.61,5.27A35.72,35.72,0,0,1,777.06,456a53.44,53.44,0,0,1,0,44.62,35.64,35.64,0,0,1-13.82,14.9,39.74,39.74,0,0,1-20.56,5.27H691.12ZM721,516.35l28.61-4.5,38.29,66H755.47Z" transform="translate(-166.31 -434.41)" style="fill:#fff"/><path d="M810.84,435.88H837.6v142H810.84Zm9.67,0H906v25.78H820.51Zm0,58.59h74.71v25.78H820.51Zm0,57.62H906v25.78H820.51Z" transform="translate(-166.31 -434.41)" style="fill:#fff"/><path d="M930.38,435.78h26.75V577.87H930.38ZM941,495h49.41a12.84,12.84,0,0,0,7.23-2,13.36,13.36,0,0,0,4.84-5.86,22.45,22.45,0,0,0,1.8-8.79,21.27,21.27,0,0,0-1.71-8.79,13.35,13.35,0,0,0-4.83-5.86,13.05,13.05,0,0,0-7.33-2.05H941V435.78h51.56a39.67,39.67,0,0,1,20.61,5.27A35.72,35.72,0,0,1,1027,456a53.44,53.44,0,0,1,0,44.62,35.57,35.57,0,0,1-13.82,14.9,39.74,39.74,0,0,1-20.56,5.27H941Zm29.88,21.39,28.62-4.5,38.28,66h-32.42Z" transform="translate(-166.31 -434.41)" style="fill:#fff"/><path d="M1047.13,573.21V543.16h9.28v30.05Zm0,3.52V567.1h51.12v9.63Zm21.55-3.52V547H1078v26.19Z" transform="translate(-166.31 -434.41)" style="fill:#fff"/><path d="M1098.25,526.49v10h-51.12v-10Z" transform="translate(-166.31 -434.41)" style="fill:#fff"/><path d="M1047.13,519.81V509.9l34.1-10.87-34.1-10.86v-9.91l51.12,17v7.53Z" transform="translate(-166.31 -434.41)" style="fill:#fff"/><path d="M1047.13,468.45V437.69h9.28v30.76Zm0,3.48V462.3h51.12v9.63Zm21.09-3.48v-26.9h9.28v26.9Zm20.75,0V437.69h9.28v30.76Z" transform="translate(-166.31 -434.41)" style="fill:#fff"/></symbol></svg>